<mxfile host="app.diagrams.net" modified="2021-08-24T13:15:23.396Z" agent="5.0 (Windows NT 10.0; Win64; x64) AppleWebKit/537.36 (KHTML, like Gecko) Chrome/92.0.4515.159 Safari/537.36" etag="DeyLSRKj317VpWIOdOYn" version="14.9.8" type="github">
  <diagram id="C5RBs43oDa-KdzZeNtuy" name="Page-1">
    <mxGraphModel dx="782" dy="436" grid="1" gridSize="10" guides="1" tooltips="1" connect="1" arrows="1" fold="1" page="1" pageScale="1" pageWidth="827" pageHeight="1169" math="0" shadow="0">
      <root>
        <mxCell id="WIyWlLk6GJQsqaUBKTNV-0" />
        <mxCell id="WIyWlLk6GJQsqaUBKTNV-1" parent="WIyWlLk6GJQsqaUBKTNV-0" />
        <mxCell id="o07t9C7_OY86YAJY_G1Z-13" value="" style="edgeStyle=orthogonalEdgeStyle;rounded=0;orthogonalLoop=1;jettySize=auto;html=1;" edge="1" parent="WIyWlLk6GJQsqaUBKTNV-1" source="o07t9C7_OY86YAJY_G1Z-6" target="o07t9C7_OY86YAJY_G1Z-7">
          <mxGeometry relative="1" as="geometry" />
        </mxCell>
        <mxCell id="o07t9C7_OY86YAJY_G1Z-6" value="Start" style="ellipse;whiteSpace=wrap;html=1;" vertex="1" parent="WIyWlLk6GJQsqaUBKTNV-1">
          <mxGeometry x="340" y="60" width="120" height="80" as="geometry" />
        </mxCell>
        <mxCell id="o07t9C7_OY86YAJY_G1Z-14" value="" style="edgeStyle=orthogonalEdgeStyle;rounded=0;orthogonalLoop=1;jettySize=auto;html=1;" edge="1" parent="WIyWlLk6GJQsqaUBKTNV-1" source="o07t9C7_OY86YAJY_G1Z-7" target="o07t9C7_OY86YAJY_G1Z-8">
          <mxGeometry relative="1" as="geometry" />
        </mxCell>
        <mxCell id="o07t9C7_OY86YAJY_G1Z-16" value="" style="edgeStyle=orthogonalEdgeStyle;rounded=0;orthogonalLoop=1;jettySize=auto;html=1;fontSize=12;" edge="1" parent="WIyWlLk6GJQsqaUBKTNV-1" source="o07t9C7_OY86YAJY_G1Z-7" target="o07t9C7_OY86YAJY_G1Z-9">
          <mxGeometry relative="1" as="geometry" />
        </mxCell>
        <mxCell id="o07t9C7_OY86YAJY_G1Z-7" value="" style="rhombus;whiteSpace=wrap;html=1;" vertex="1" parent="WIyWlLk6GJQsqaUBKTNV-1">
          <mxGeometry x="360" y="170" width="80" height="80" as="geometry" />
        </mxCell>
        <mxCell id="o07t9C7_OY86YAJY_G1Z-18" value="" style="edgeStyle=orthogonalEdgeStyle;rounded=0;orthogonalLoop=1;jettySize=auto;html=1;fontSize=12;" edge="1" parent="WIyWlLk6GJQsqaUBKTNV-1" source="o07t9C7_OY86YAJY_G1Z-8" target="o07t9C7_OY86YAJY_G1Z-11">
          <mxGeometry relative="1" as="geometry" />
        </mxCell>
        <mxCell id="o07t9C7_OY86YAJY_G1Z-8" value="drive(BASETIME x i, 1)" style="rounded=1;whiteSpace=wrap;html=1;" vertex="1" parent="WIyWlLk6GJQsqaUBKTNV-1">
          <mxGeometry x="340" y="280" width="130" height="60" as="geometry" />
        </mxCell>
        <mxCell id="o07t9C7_OY86YAJY_G1Z-9" value="Stop" style="ellipse;whiteSpace=wrap;html=1;" vertex="1" parent="WIyWlLk6GJQsqaUBKTNV-1">
          <mxGeometry x="160" y="170" width="120" height="80" as="geometry" />
        </mxCell>
        <mxCell id="o07t9C7_OY86YAJY_G1Z-10" value="increment (i) = 1" style="text;html=1;strokeColor=none;fillColor=none;align=center;verticalAlign=middle;whiteSpace=wrap;rounded=0;fontSize=12;" vertex="1" parent="WIyWlLk6GJQsqaUBKTNV-1">
          <mxGeometry x="100" y="60" width="100" height="20" as="geometry" />
        </mxCell>
        <mxCell id="o07t9C7_OY86YAJY_G1Z-19" style="edgeStyle=orthogonalEdgeStyle;rounded=0;orthogonalLoop=1;jettySize=auto;html=1;fontSize=12;entryX=1;entryY=0.5;entryDx=0;entryDy=0;" edge="1" parent="WIyWlLk6GJQsqaUBKTNV-1" source="o07t9C7_OY86YAJY_G1Z-11" target="o07t9C7_OY86YAJY_G1Z-7">
          <mxGeometry relative="1" as="geometry">
            <mxPoint x="550" y="210" as="targetPoint" />
            <Array as="points">
              <mxPoint x="570" y="400" />
              <mxPoint x="570" y="210" />
            </Array>
          </mxGeometry>
        </mxCell>
        <mxCell id="o07t9C7_OY86YAJY_G1Z-11" value="drive(BASETIME x i, -1)" style="rounded=1;whiteSpace=wrap;html=1;" vertex="1" parent="WIyWlLk6GJQsqaUBKTNV-1">
          <mxGeometry x="330" y="370" width="130" height="60" as="geometry" />
        </mxCell>
        <mxCell id="o07t9C7_OY86YAJY_G1Z-15" value="BASETIME = 2300" style="text;html=1;strokeColor=none;fillColor=none;align=center;verticalAlign=middle;whiteSpace=wrap;rounded=0;fontSize=12;" vertex="1" parent="WIyWlLk6GJQsqaUBKTNV-1">
          <mxGeometry x="100" y="100" width="110" height="20" as="geometry" />
        </mxCell>
        <mxCell id="o07t9C7_OY86YAJY_G1Z-17" value="increment = 5" style="text;html=1;align=center;verticalAlign=middle;resizable=0;points=[];autosize=1;strokeColor=none;fontSize=12;" vertex="1" parent="WIyWlLk6GJQsqaUBKTNV-1">
          <mxGeometry x="280" y="190" width="90" height="20" as="geometry" />
        </mxCell>
        <mxCell id="o07t9C7_OY86YAJY_G1Z-20" value="i++" style="text;html=1;align=center;verticalAlign=middle;resizable=0;points=[];autosize=1;strokeColor=none;fontSize=12;" vertex="1" parent="WIyWlLk6GJQsqaUBKTNV-1">
          <mxGeometry x="495" y="370" width="30" height="20" as="geometry" />
        </mxCell>
      </root>
    </mxGraphModel>
  </diagram>
</mxfile>
